<?xml version="1.0" encoding="UTF-8"?>
<svg xmlns="http://www.w3.org/2000/svg" xmlns:xlink="http://www.w3.org/1999/xlink" width="525.333333" height="118.666667" viewBox="0 0 525.333333 118.666667" version="1.1">
<g id="surface1">
<path style="fill-rule:nonzero;fill:rgb(100%,100%,100%);fill-opacity:1;stroke-width:1;stroke-linecap:round;stroke-linejoin:round;stroke:rgb(0%,0%,0%);stroke-opacity:1;stroke-miterlimit:10;" d="M 279.401367 245.801758 C 296.463867 262.867188 296.463867 290.535156 279.401367 307.600586 C 262.335938 324.668945 234.665039 324.668945 217.59668 307.600586 C 200.53418 290.535156 200.53418 262.867188 217.59668 245.801758 C 234.665039 228.733398 262.335938 228.733398 279.401367 245.801758 " transform="matrix(1.333333,0,0,1.333333,-136,-309.333333)"/>
<path style="fill-rule:nonzero;fill:rgb(69.803923%,85.09804%,100%);fill-opacity:1;stroke-width:1;stroke-linecap:round;stroke-linejoin:round;stroke:rgb(0%,0%,0%);stroke-opacity:1;stroke-miterlimit:10;" d="M 248.499023 232.999023 L 290.0625 263.195312 L 274.186523 312.053711 L 222.811523 312.053711 L 206.938477 263.195312 Z M 248.499023 232.999023 " transform="matrix(1.333333,0,0,1.333333,-136,-309.333333)"/>
<path style="fill-rule:nonzero;fill:rgb(100%,100%,100%);fill-opacity:1;stroke-width:1;stroke-linecap:round;stroke-linejoin:round;stroke:rgb(0%,0%,0%);stroke-opacity:1;stroke-miterlimit:10;" d="M 482.200195 245.801758 C 499.265625 262.867188 499.265625 290.535156 482.200195 307.600586 C 465.131836 324.668945 437.463867 324.668945 420.398437 307.600586 C 403.333008 290.535156 403.333008 262.867188 420.398437 245.801758 C 437.463867 228.733398 465.131836 228.733398 482.200195 245.801758 " transform="matrix(1.333333,0,0,1.333333,-136,-309.333333)"/>
<path style="fill-rule:nonzero;fill:rgb(69.803923%,85.09804%,100%);fill-opacity:1;stroke-width:1;stroke-linecap:round;stroke-linejoin:round;stroke:rgb(0%,0%,0%);stroke-opacity:1;stroke-miterlimit:10;" d="M 435.37793 236.898438 L 467.217773 236.898438 L 491.100586 260.78125 L 491.100586 292.621094 L 467.217773 316.500977 L 435.37793 316.500977 L 411.500977 292.621094 L 411.500977 260.78125 Z M 435.37793 236.898438 " transform="matrix(1.333333,0,0,1.333333,-136,-309.333333)"/>
<path style="fill-rule:nonzero;fill:rgb(100%,100%,100%);fill-opacity:1;stroke-width:1;stroke-linecap:round;stroke-linejoin:round;stroke:rgb(0%,0%,0%);stroke-opacity:1;stroke-miterlimit:10;" d="M 177.999023 245.801758 C 195.067383 262.867188 195.067383 290.535156 177.999023 307.600586 C 160.933594 324.668945 133.265625 324.668945 116.200195 307.600586 C 99.131836 290.535156 99.131836 262.867188 116.200195 245.801758 C 133.265625 228.733398 160.933594 228.733398 177.999023 245.801758 " transform="matrix(1.333333,0,0,1.333333,-136,-309.333333)"/>
<path style=" stroke:none;fill-rule:nonzero;fill:rgb(69.803923%,85.09804%,100%);fill-opacity:1;" d="M 20 99.933594 L 100.46875 99.933594 L 100.46875 19.46875 L 20 19.46875 Z M 20 99.933594 "/>
<path style="fill:none;stroke-width:1;stroke-linecap:round;stroke-linejoin:round;stroke:rgb(0%,0%,0%);stroke-opacity:1;stroke-miterlimit:10;" d="M 117 246.601562 L 177.351562 246.601562 L 177.351562 306.950195 L 117 306.950195 Z M 117 246.601562 " transform="matrix(1.333333,0,0,1.333333,-136,-309.333333)"/>
<path style="fill-rule:nonzero;fill:rgb(100%,100%,100%);fill-opacity:1;stroke-width:1;stroke-linecap:round;stroke-linejoin:round;stroke:rgb(0%,0%,0%);stroke-opacity:1;stroke-miterlimit:10;" d="M 380.800781 245.875 C 397.866211 262.94043 397.866211 290.608398 380.800781 307.676758 C 363.735352 324.742188 336.067383 324.742188 318.999023 307.676758 C 301.933594 290.608398 301.933594 262.94043 318.999023 245.875 C 336.067383 228.80957 363.735352 228.80957 380.800781 245.875 " transform="matrix(1.333333,0,0,1.333333,-136,-309.333333)"/>
<path style="fill-rule:nonzero;fill:rgb(69.803923%,85.09804%,100%);fill-opacity:1;stroke-width:1;stroke-linecap:round;stroke-linejoin:round;stroke:rgb(0%,0%,0%);stroke-opacity:1;stroke-miterlimit:10;" d="M 306.199219 276.698242 L 328.051758 239.898438 L 371.750977 239.898438 L 393.600586 276.698242 L 371.750977 313.500977 L 328.051758 313.500977 Z M 306.199219 276.698242 " transform="matrix(1.333333,0,0,1.333333,-136,-309.333333)"/>
<path style="fill:none;stroke-width:1;stroke-linecap:round;stroke-linejoin:round;stroke:rgb(0%,0%,0%);stroke-opacity:1;stroke-dasharray:2,2;stroke-miterlimit:10;" d="M 147.175781 276.774414 L 177.351562 306.926758 " transform="matrix(1.333333,0,0,1.333333,-136,-309.333333)"/>
<path style="fill:none;stroke-width:1;stroke-linecap:round;stroke-linejoin:round;stroke:rgb(0%,0%,0%);stroke-opacity:1;stroke-dasharray:4,4;stroke-miterlimit:10;" d="M 177.342773 246.601562 L 177.351562 246.592773 " transform="matrix(1.333333,0,0,1.333333,-136,-309.333333)"/>
<path style="fill:none;stroke-width:1;stroke-linecap:round;stroke-linejoin:round;stroke:rgb(0%,0%,0%);stroke-opacity:1;stroke-dasharray:2,2;stroke-miterlimit:10;" d="M 147.175781 276.774414 L 177.351562 246.988281 " transform="matrix(1.333333,0,0,1.333333,-136,-309.333333)"/>
<path style="fill:none;stroke-width:1;stroke-linecap:round;stroke-linejoin:round;stroke:rgb(0%,0%,0%);stroke-opacity:1;stroke-dasharray:2,2;stroke-miterlimit:10;" d="M 147.175781 276.774414 L 117 246.915039 " transform="matrix(1.333333,0,0,1.333333,-136,-309.333333)"/>
<path style="fill:none;stroke-width:1;stroke-linecap:round;stroke-linejoin:round;stroke:rgb(0%,0%,0%);stroke-opacity:1;stroke-dasharray:2,2;stroke-miterlimit:10;" d="M 147.175781 276.774414 L 117 306.475586 " transform="matrix(1.333333,0,0,1.333333,-136,-309.333333)"/>
<path style="fill:none;stroke-width:1;stroke-linecap:round;stroke-linejoin:round;stroke:rgb(0%,0%,0%);stroke-opacity:1;stroke-dasharray:2,2;stroke-miterlimit:10;" d="M 248.499023 276.698242 L 248.411133 233.075195 " transform="matrix(1.333333,0,0,1.333333,-136,-309.333333)"/>
<path style="fill:none;stroke-width:1;stroke-linecap:round;stroke-linejoin:round;stroke:rgb(0%,0%,0%);stroke-opacity:1;stroke-dasharray:2,2;stroke-miterlimit:10;" d="M 248.499023 276.698242 L 288.18457 264.097656 " transform="matrix(1.333333,0,0,1.333333,-136,-309.333333)"/>
<path style="fill:none;stroke-width:1;stroke-linecap:round;stroke-linejoin:round;stroke:rgb(0%,0%,0%);stroke-opacity:1;stroke-dasharray:2,2;stroke-miterlimit:10;" d="M 248.499023 276.698242 L 208.910156 264.378906 " transform="matrix(1.333333,0,0,1.333333,-136,-309.333333)"/>
<path style="fill:none;stroke-width:1;stroke-linecap:round;stroke-linejoin:round;stroke:rgb(0%,0%,0%);stroke-opacity:1;stroke-dasharray:2,2;stroke-miterlimit:10;" d="M 273.1875 311.520508 L 248.499023 276.698242 " transform="matrix(1.333333,0,0,1.333333,-136,-309.333333)"/>
<path style="fill:none;stroke-width:1;stroke-linecap:round;stroke-linejoin:round;stroke:rgb(0%,0%,0%);stroke-opacity:1;stroke-dasharray:2,2;stroke-miterlimit:10;" d="M 248.499023 276.698242 L 223.602539 311.801758 " transform="matrix(1.333333,0,0,1.333333,-136,-309.333333)"/>
<path style="fill:none;stroke-width:1;stroke-linecap:round;stroke-linejoin:round;stroke:rgb(0%,0%,0%);stroke-opacity:1;stroke-dasharray:2,2;stroke-miterlimit:10;" d="M 349.898438 276.774414 L 328.289062 239.898438 " transform="matrix(1.333333,0,0,1.333333,-136,-309.333333)"/>
<path style="fill:none;stroke-width:1;stroke-linecap:round;stroke-linejoin:round;stroke:rgb(0%,0%,0%);stroke-opacity:1;stroke-dasharray:2,2;stroke-miterlimit:10;" d="M 349.898438 276.774414 L 371.833008 239.898438 " transform="matrix(1.333333,0,0,1.333333,-136,-309.333333)"/>
<path style="fill:none;stroke-width:1;stroke-linecap:round;stroke-linejoin:round;stroke:rgb(0%,0%,0%);stroke-opacity:1;stroke-dasharray:2,2;stroke-miterlimit:10;" d="M 349.898438 276.774414 L 371.311523 313.500977 " transform="matrix(1.333333,0,0,1.333333,-136,-309.333333)"/>
<path style="fill:none;stroke-width:1;stroke-linecap:round;stroke-linejoin:round;stroke:rgb(0%,0%,0%);stroke-opacity:1;stroke-dasharray:2,2;stroke-miterlimit:10;" d="M 349.898438 276.774414 L 328.12207 313.500977 " transform="matrix(1.333333,0,0,1.333333,-136,-309.333333)"/>
<path style="fill:none;stroke-width:1;stroke-linecap:round;stroke-linejoin:round;stroke:rgb(0%,0%,0%);stroke-opacity:1;stroke-dasharray:2,2;stroke-miterlimit:10;" d="M 349.898438 276.774414 L 306.199219 276.745117 " transform="matrix(1.333333,0,0,1.333333,-136,-309.333333)"/>
<path style="fill:none;stroke-width:1;stroke-linecap:round;stroke-linejoin:round;stroke:rgb(0%,0%,0%);stroke-opacity:1;stroke-dasharray:2,2;stroke-miterlimit:10;" d="M 349.898438 276.774414 L 393.600586 276.768555 " transform="matrix(1.333333,0,0,1.333333,-136,-309.333333)"/>
<path style="fill:none;stroke-width:1;stroke-linecap:round;stroke-linejoin:round;stroke:rgb(0%,0%,0%);stroke-opacity:1;stroke-dasharray:2,2;stroke-miterlimit:10;" d="M 451.300781 276.698242 L 466.980469 316.500977 " transform="matrix(1.333333,0,0,1.333333,-136,-309.333333)"/>
<path style="fill:none;stroke-width:1;stroke-linecap:round;stroke-linejoin:round;stroke:rgb(0%,0%,0%);stroke-opacity:1;stroke-dasharray:2,2;stroke-miterlimit:10;" d="M 451.300781 276.698242 L 491.100586 260.819336 " transform="matrix(1.333333,0,0,1.333333,-136,-309.333333)"/>
<path style="fill:none;stroke-width:1;stroke-linecap:round;stroke-linejoin:round;stroke:rgb(0%,0%,0%);stroke-opacity:1;stroke-dasharray:2,2;stroke-miterlimit:10;" d="M 451.081055 276.698242 L 435.398437 316.500977 " transform="matrix(1.333333,0,0,1.333333,-136,-309.333333)"/>
<path style="fill:none;stroke-width:1;stroke-linecap:round;stroke-linejoin:round;stroke:rgb(0%,0%,0%);stroke-opacity:1;stroke-dasharray:2,2;stroke-miterlimit:10;" d="M 451.300781 276.698242 L 466.980469 236.898438 " transform="matrix(1.333333,0,0,1.333333,-136,-309.333333)"/>
<path style="fill:none;stroke-width:1;stroke-linecap:round;stroke-linejoin:round;stroke:rgb(0%,0%,0%);stroke-opacity:1;stroke-dasharray:2,2;stroke-miterlimit:10;" d="M 451.081055 276.698242 L 435.398437 236.898438 " transform="matrix(1.333333,0,0,1.333333,-136,-309.333333)"/>
<path style="fill:none;stroke-width:1;stroke-linecap:round;stroke-linejoin:round;stroke:rgb(0%,0%,0%);stroke-opacity:1;stroke-dasharray:2,2;stroke-miterlimit:10;" d="M 451.300781 276.698242 L 491.100586 292.583008 " transform="matrix(1.333333,0,0,1.333333,-136,-309.333333)"/>
<path style="fill:none;stroke-width:1;stroke-linecap:round;stroke-linejoin:round;stroke:rgb(0%,0%,0%);stroke-opacity:1;stroke-dasharray:2,2;stroke-miterlimit:10;" d="M 451.300781 276.698242 L 411.500977 260.819336 " transform="matrix(1.333333,0,0,1.333333,-136,-309.333333)"/>
<path style="fill:none;stroke-width:1;stroke-linecap:round;stroke-linejoin:round;stroke:rgb(0%,0%,0%);stroke-opacity:1;stroke-dasharray:2,2;stroke-miterlimit:10;" d="M 451.300781 276.698242 L 411.500977 292.583008 " transform="matrix(1.333333,0,0,1.333333,-136,-309.333333)"/>
</g>
</svg>
